<?xml version="1.0" encoding="UTF-8" standalone="no"?>
<svg
   height="48"
   width="48"
   version="1.1"
   id="svg4"
   sodipodi:docname="book-line.svg"
   inkscape:version="1.1 (c68e22c387, 2021-05-23)"
   xmlns:inkscape="http://www.inkscape.org/namespaces/inkscape"
   xmlns:sodipodi="http://sodipodi.sourceforge.net/DTD/sodipodi-0.dtd"
   xmlns="http://www.w3.org/2000/svg"
   xmlns:svg="http://www.w3.org/2000/svg">
  <defs
     id="defs8" />
  <sodipodi:namedview
     id="namedview6"
     pagecolor="#ffffff"
     bordercolor="#999999"
     borderopacity="1"
     inkscape:pageshadow="0"
     inkscape:pageopacity="0"
     inkscape:pagecheckerboard="0"
     showgrid="false"
     inkscape:zoom="18.1875"
     inkscape:cx="24"
     inkscape:cy="24"
     inkscape:window-width="2560"
     inkscape:window-height="1361"
     inkscape:window-x="-9"
     inkscape:window-y="-9"
     inkscape:window-maximized="1"
     inkscape:current-layer="svg4" />
  <path
     d="M11.9 43q-1.2 0-2.05-.85Q9 41.3 9 40.1V7.9q0-1.2.85-2.05Q10.7 5 11.9 5h24.2q1.2 0 2.05.85.85.85.85 2.05v32.2q0 1.2-.85 2.05-.85.85-2.05.85Zm0-2.25h24.2q.25 0 .45-.2t.2-.45V7.9q0-.25-.2-.45t-.45-.2h-2.65V19.9l-4.4-2.55-4.35 2.55V7.25H11.9q-.25 0-.45.2t-.2.45v32.2q0 .25.2.45t.45.2Zm-.65 0V7.25 40.75ZM24.7 19.9l4.35-2.55 4.4 2.55-4.4-2.55-4.35 2.55Z"
     id="path2"
     style="fill:#ffffff;fill-opacity:1" />
</svg>
