<?xml version="1.0" encoding="UTF-8" standalone="no"?>
<svg
   height="48"
   width="48"
   version="1.1"
   id="svg4"
   sodipodi:docname="calculator-line.svg"
   inkscape:version="1.1 (c68e22c387, 2021-05-23)"
   xmlns:inkscape="http://www.inkscape.org/namespaces/inkscape"
   xmlns:sodipodi="http://sodipodi.sourceforge.net/DTD/sodipodi-0.dtd"
   xmlns="http://www.w3.org/2000/svg"
   xmlns:svg="http://www.w3.org/2000/svg">
  <defs
     id="defs8" />
  <sodipodi:namedview
     id="namedview6"
     pagecolor="#ffffff"
     bordercolor="#999999"
     borderopacity="1"
     inkscape:pageshadow="0"
     inkscape:pageopacity="0"
     inkscape:pagecheckerboard="0"
     showgrid="false"
     inkscape:zoom="18.1875"
     inkscape:cx="24"
     inkscape:cy="24"
     inkscape:window-width="2560"
     inkscape:window-height="1361"
     inkscape:window-x="-9"
     inkscape:window-y="-9"
     inkscape:window-maximized="1"
     inkscape:current-layer="svg4" />
  <path
     d="M16.1 36.15h2v-4.3h4.3V29.8h-4.3v-4.25h-2v4.25h-4.3v2.05h4.3Zm10.55-1.7h9.4v-2h-9.4Zm0-5.25h9.4v-2.05h-9.4Zm1.65-8.15 2.95-3 3 3 1.45-1.5-3-2.95 3-3-1.45-1.45-3 3-2.95-3-1.5 1.45 3 3-3 2.95ZM12.45 17.6h9.25v-2h-9.25ZM9.9 41q-1.2 0-2.05-.85Q7 39.3 7 38.1V9.9q0-1.2.85-2.05Q8.7 7 9.9 7h28.2q1.2 0 2.05.85.85.85.85 2.05v28.2q0 1.2-.85 2.05-.85.85-2.05.85Zm0-2.25h28.2q.25 0 .45-.2t.2-.45V9.9q0-.25-.2-.45t-.45-.2H9.9q-.25 0-.45.2t-.2.45v28.2q0 .25.2.45t.45.2Zm-.65-29.5v29.5-29.5Z"
     id="path2"
     style="fill:#ffffff;fill-opacity:1" />
</svg>
