<?xml version="1.0" encoding="UTF-8" standalone="no"?>
<svg
   height="48"
   width="48"
   version="1.1"
   id="svg4"
   sodipodi:docname="clipboard-line.svg"
   inkscape:version="1.1 (c68e22c387, 2021-05-23)"
   xmlns:inkscape="http://www.inkscape.org/namespaces/inkscape"
   xmlns:sodipodi="http://sodipodi.sourceforge.net/DTD/sodipodi-0.dtd"
   xmlns="http://www.w3.org/2000/svg"
   xmlns:svg="http://www.w3.org/2000/svg">
  <defs
     id="defs8" />
  <sodipodi:namedview
     id="namedview6"
     pagecolor="#ffffff"
     bordercolor="#999999"
     borderopacity="1"
     inkscape:pageshadow="0"
     inkscape:pageopacity="0"
     inkscape:pagecheckerboard="0"
     showgrid="false"
     inkscape:zoom="18.1875"
     inkscape:cx="24"
     inkscape:cy="24"
     inkscape:window-width="2560"
     inkscape:window-height="1361"
     inkscape:window-x="-9"
     inkscape:window-y="-9"
     inkscape:window-maximized="1"
     inkscape:current-layer="svg4" />
  <path
     d="M9.9 41q-1.2 0-2.05-.85Q7 39.3 7 38.1V9.9q0-1.2.85-2.05Q8.7 7 9.9 7h10.25q-.1-1.6 1.025-2.8Q22.3 3 24 3q1.7 0 2.85 1.2 1.15 1.2 1 2.8H38.1q1.2 0 2.05.85.85.85.85 2.05v28.2q0 1.2-.85 2.05-.85.85-2.05.85Zm0-2.25h28.2q.25 0 .45-.2t.2-.45V9.9q0-.25-.2-.45t-.45-.2H9.9q-.25 0-.45.2t-.2.45v28.2q0 .25.2.45t.45.2Zm4.6-5.5h12.75V31H14.5Zm0-8.1h19v-2.3h-19Zm0-8.15h19v-2.25h-19ZM24 8.45q.65 0 1.175-.5t.525-1.2q0-.7-.525-1.2T24 5.05q-.7 0-1.175.5-.475.5-.475 1.2t.475 1.2q.475.5 1.175.5ZM9.25 38.75V9.25 38.75Z"
     id="path2"
     style="fill:#ffffff;fill-opacity:1" />
</svg>
