<?xml version="1.0" encoding="UTF-8" standalone="no"?>
<svg
   height="48"
   width="48"
   version="1.1"
   id="svg4"
   sodipodi:docname="weather-app.svg"
   inkscape:version="1.1 (c68e22c387, 2021-05-23)"
   xmlns:inkscape="http://www.inkscape.org/namespaces/inkscape"
   xmlns:sodipodi="http://sodipodi.sourceforge.net/DTD/sodipodi-0.dtd"
   xmlns="http://www.w3.org/2000/svg"
   xmlns:svg="http://www.w3.org/2000/svg">
  <defs
     id="defs8" />
  <sodipodi:namedview
     id="namedview6"
     pagecolor="#ffffff"
     bordercolor="#999999"
     borderopacity="1"
     inkscape:pageshadow="0"
     inkscape:pageopacity="0"
     inkscape:pagecheckerboard="0"
     showgrid="false"
     inkscape:zoom="18.1875"
     inkscape:cx="24"
     inkscape:cy="24"
     inkscape:window-width="2560"
     inkscape:window-height="1361"
     inkscape:window-x="-9"
     inkscape:window-y="-9"
     inkscape:window-maximized="1"
     inkscape:current-layer="svg4" />
  <path
     d="M22.85 10.05v-7h2.3v7Zm11.8 4.9-1.6-1.6 4.95-5L39.6 10Zm3.3 10.2v-2.3h7v2.3Zm-15.1 19.8v-7h2.3v7Zm-9.5-30.05-5-4.9L10 8.4l4.95 4.95Zm24.7 24.75-5-5 1.55-1.55 5.05 4.85Zm-35-14.5v-2.3h7v2.3ZM10 39.65 8.4 38l4.9-4.9.85.75.85.8ZM24 35q-4.6 0-7.8-3.2T13 24q0-4.6 3.2-7.8T24 13q4.6 0 7.8 3.2T35 24q0 4.6-3.2 7.8T24 35Zm0-2.25q3.65 0 6.2-2.55 2.55-2.55 2.55-6.2 0-3.65-2.55-6.2-2.55-2.55-6.2-2.55-3.65 0-6.2 2.55-2.55 2.55-2.55 6.2 0 3.65 2.55 6.2 2.55 2.55 6.2 2.55ZM24 24Z"
     id="path2"
     style="fill:#ffffff;fill-opacity:1" />
</svg>
