<?xml version="1.0" encoding="UTF-8" standalone="no"?>
<svg
   viewBox="0 0 24 24"
   width="24"
   height="24"
   version="1.1"
   id="svg6"
   sodipodi:docname="favicon.svg"
   inkscape:version="1.2 (dc2aedaf03, 2022-05-15)"
   xmlns:inkscape="http://www.inkscape.org/namespaces/inkscape"
   xmlns:sodipodi="http://sodipodi.sourceforge.net/DTD/sodipodi-0.dtd"
   xmlns="http://www.w3.org/2000/svg"
   xmlns:svg="http://www.w3.org/2000/svg">
  <defs
     id="defs10" />
  <sodipodi:namedview
     id="namedview8"
     pagecolor="#ffffff"
     bordercolor="#000000"
     borderopacity="0.25"
     inkscape:showpageshadow="2"
     inkscape:pageopacity="0.0"
     inkscape:pagecheckerboard="0"
     inkscape:deskcolor="#d1d1d1"
     showgrid="false"
     inkscape:zoom="34.875"
     inkscape:cx="12"
     inkscape:cy="12.014337"
     inkscape:window-width="1920"
     inkscape:window-height="1017"
     inkscape:window-x="-8"
     inkscape:window-y="-8"
     inkscape:window-maximized="1"
     inkscape:current-layer="svg6" />
  <path
     fill="none"
     d="M0 0h24v24H0z"
     id="path2" />
  <path
     d="M9 4h5.446a1 1 0 0 1 .848.47L18.75 10h4.408a.5.5 0 0 1 .439.74L19.637 18H19a6.01 6.01 0 0 1-1.535-.198L20.63 12H3.4l1.048 5.824A6.013 6.013 0 0 1 3 18h-.545l-1.24-6.821A1 1 0 0 1 2.197 10H3V5a1 1 0 0 1 1-1h1V1h4v3zm-4 6h11.392l-2.5-4H5v4zM3 20a5.978 5.978 0 0 0 4-1.528A5.978 5.978 0 0 0 11 20a5.978 5.978 0 0 0 4-1.528A5.978 5.978 0 0 0 19 20h2v2h-2a7.963 7.963 0 0 1-4-1.07A7.963 7.963 0 0 1 11 22a7.963 7.963 0 0 1-4-1.07A7.963 7.963 0 0 1 3 22H1v-2h2z"
     id="path4"
     style="fill:#ffffff;fill-opacity:1" />
</svg>
