<?xml version="1.0" encoding="UTF-8" standalone="no"?>
<svg
   height="48"
   width="48"
   version="1.1"
   id="svg4"
   sodipodi:docname="brush-line.svg"
   inkscape:version="1.1 (c68e22c387, 2021-05-23)"
   xmlns:inkscape="http://www.inkscape.org/namespaces/inkscape"
   xmlns:sodipodi="http://sodipodi.sourceforge.net/DTD/sodipodi-0.dtd"
   xmlns="http://www.w3.org/2000/svg"
   xmlns:svg="http://www.w3.org/2000/svg">
  <defs
     id="defs8" />
  <sodipodi:namedview
     id="namedview6"
     pagecolor="#ffffff"
     bordercolor="#999999"
     borderopacity="1"
     inkscape:pageshadow="0"
     inkscape:pageopacity="0"
     inkscape:pagecheckerboard="0"
     showgrid="false"
     inkscape:zoom="18.1875"
     inkscape:cx="24"
     inkscape:cy="24"
     inkscape:window-width="2560"
     inkscape:window-height="1361"
     inkscape:window-x="-9"
     inkscape:window-y="-9"
     inkscape:window-maximized="1"
     inkscape:current-layer="svg4" />
  <path
     d="M11.5 40.75q-1.35 0-2.625-.375T6.55 39.1q1.5-.75 2.075-1.925Q9.2 36 9.2 34.25q0-1.9 1.3-3.175t3.15-1.275q1.9 0 3.175 1.275T18.1 34.25q0 2.8-1.925 4.65-1.925 1.85-4.675 1.85Zm0-2.3q1.7 0 3.025-1.225t1.325-2.975q0-.95-.625-1.575t-1.575-.625q-.95 0-1.55.625-.6.625-.6 1.575 0 1.7-.4 2.65t-1.35 1.3q.25.05.85.15.6.1.9.1Zm10.6-8.75-3.75-3.9L36.15 8q.65-.65 1.5-.675Q38.5 7.3 39.2 8l.75.75q.7.7.675 1.575-.025.875-.675 1.525Zm-8.45 4.55Z"
     id="path2"
     style="fill:#ffffff;fill-opacity:1" />
</svg>
