<?xml version="1.0" encoding="UTF-8" standalone="no"?>
<svg
   height="48"
   width="48"
   version="1.1"
   id="svg4"
   sodipodi:docname="restaurant-2-line.svg"
   inkscape:version="1.1 (c68e22c387, 2021-05-23)"
   xmlns:inkscape="http://www.inkscape.org/namespaces/inkscape"
   xmlns:sodipodi="http://sodipodi.sourceforge.net/DTD/sodipodi-0.dtd"
   xmlns="http://www.w3.org/2000/svg"
   xmlns:svg="http://www.w3.org/2000/svg">
  <defs
     id="defs8" />
  <sodipodi:namedview
     id="namedview6"
     pagecolor="#ffffff"
     bordercolor="#999999"
     borderopacity="1"
     inkscape:pageshadow="0"
     inkscape:pageopacity="0"
     inkscape:pagecheckerboard="0"
     showgrid="false"
     inkscape:zoom="18.1875"
     inkscape:cx="24"
     inkscape:cy="24"
     inkscape:window-width="2560"
     inkscape:window-height="1361"
     inkscape:window-x="-9"
     inkscape:window-y="-9"
     inkscape:window-maximized="1"
     inkscape:current-layer="svg4" />
  <path
     d="m8.3 41.3-1.6-1.6 20.75-20.75q-1.1-2.45-.525-4.875.575-2.425 2.725-4.625 2-1.95 5.05-2.675 3.05-.725 5.1 1.275 2.05 2.05 1.275 5.075Q40.3 16.15 38.2 18.25q-2 2.05-4.4 2.65-2.4.6-4.7-.35l-3.7 3.65 15.5 15.5-1.6 1.6-15.5-15.45ZM14.6 24l-5.75-5.75q-2.35-2.35-2.5-5.575Q6.2 9.45 8.3 6.85L20 18.6Z"
     id="path2"
     style="fill:#ffffff;fill-opacity:1" />
</svg>
