<?xml version="1.0" encoding="UTF-8" standalone="no"?>
<svg
   height="48"
   width="48"
   version="1.1"
   id="svg4"
   sodipodi:docname="cv-builder.svg"
   inkscape:version="1.1 (c68e22c387, 2021-05-23)"
   xmlns:inkscape="http://www.inkscape.org/namespaces/inkscape"
   xmlns:sodipodi="http://sodipodi.sourceforge.net/DTD/sodipodi-0.dtd"
   xmlns="http://www.w3.org/2000/svg"
   xmlns:svg="http://www.w3.org/2000/svg">
  <defs
     id="defs8" />
  <sodipodi:namedview
     id="namedview6"
     pagecolor="#ffffff"
     bordercolor="#999999"
     borderopacity="1"
     inkscape:pageshadow="0"
     inkscape:pageopacity="0"
     inkscape:pagecheckerboard="0"
     showgrid="false"
     inkscape:zoom="18.1875"
     inkscape:cx="24"
     inkscape:cy="24"
     inkscape:window-width="2560"
     inkscape:window-height="1361"
     inkscape:window-x="-9"
     inkscape:window-y="-9"
     inkscape:window-maximized="1"
     inkscape:current-layer="svg4" />
  <path
     d="M7.9 41q-1.2 0-2.05-.85Q5 39.3 5 38.1V15.9q0-1.2.85-2.05Q6.7 13 7.9 13H17V8.9q0-1.2.85-2.05Q18.7 6 19.9 6h8.2q1.2 0 2.05.85.85.85.85 2.05V13h9.1q1.2 0 2.05.85.85.85.85 2.05v22.2q0 1.2-.85 2.05-.85.85-2.05.85Zm0-2.25h32.2q.25 0 .45-.2t.2-.45V15.9q0-.25-.2-.45t-.45-.2H7.9q-.25 0-.45.2t-.2.45v22.2q0 .25.2.45t.45.2ZM19.25 13h9.5V8.9q0-.25-.2-.45t-.45-.2h-8.2q-.25 0-.45.2t-.2.45Zm-12 25.75V15.25 38.75Z"
     id="path2"
     style="fill:#ffffff;fill-opacity:1" />
</svg>
