<?xml version="1.0" encoding="UTF-8" standalone="no"?>
<svg
   height="48"
   width="48"
   version="1.1"
   id="svg4"
   sodipodi:docname="epic-seven-memory-game.svg"
   inkscape:version="1.2 (dc2aedaf03, 2022-05-15)"
   xmlns:inkscape="http://www.inkscape.org/namespaces/inkscape"
   xmlns:sodipodi="http://sodipodi.sourceforge.net/DTD/sodipodi-0.dtd"
   xmlns="http://www.w3.org/2000/svg"
   xmlns:svg="http://www.w3.org/2000/svg">
  <defs
     id="defs8" />
  <sodipodi:namedview
     id="namedview6"
     pagecolor="#ffffff"
     bordercolor="#000000"
     borderopacity="0.25"
     inkscape:showpageshadow="2"
     inkscape:pageopacity="0.0"
     inkscape:pagecheckerboard="0"
     inkscape:deskcolor="#d1d1d1"
     showgrid="false"
     inkscape:zoom="17.4375"
     inkscape:cx="23.971326"
     inkscape:cy="24.028674"
     inkscape:window-width="1920"
     inkscape:window-height="1017"
     inkscape:window-x="-8"
     inkscape:window-y="-8"
     inkscape:window-maximized="1"
     inkscape:current-layer="svg4" />
  <path
     d="M11.3 40q-1.4 0-2.35-.95Q8 38.1 8 36.7q0-1.4.95-2.35.95-.95 2.35-.95 1.4 0 2.35.95.95.95.95 2.35 0 1.4-.95 2.35-.95.95-2.35.95ZM24 40q-1.4 0-2.35-.95-.95-.95-.95-2.35 0-1.4.95-2.35.95-.95 2.35-.95 1.4 0 2.35.95.95.95.95 2.35 0 1.4-.95 2.35Q25.4 40 24 40Zm12.7 0q-1.4 0-2.35-.95-.95-.95-.95-2.35 0-1.4.95-2.35.95-.95 2.35-.95 1.4 0 2.35.95.95.95.95 2.35 0 1.4-.95 2.35-.95.95-2.35.95ZM11.3 27.3q-1.4 0-2.35-.95Q8 25.4 8 24q0-1.4.95-2.35.95-.95 2.35-.95 1.4 0 2.35.95.95.95.95 2.35 0 1.4-.95 2.35-.95.95-2.35.95Zm12.7 0q-1.4 0-2.35-.95-.95-.95-.95-2.35 0-1.4.95-2.35.95-.95 2.35-.95 1.4 0 2.35.95.95.95.95 2.35 0 1.4-.95 2.35-.95.95-2.35.95Zm12.7 0q-1.4 0-2.35-.95-.95-.95-.95-2.35 0-1.4.95-2.35.95-.95 2.35-.95 1.4 0 2.35.95.95.95.95 2.35 0 1.4-.95 2.35-.95.95-2.35.95ZM11.3 14.6q-1.4 0-2.35-.95Q8 12.7 8 11.3q0-1.4.95-2.35Q9.9 8 11.3 8q1.4 0 2.35.95.95.95.95 2.35 0 1.4-.95 2.35-.95.95-2.35.95Zm12.7 0q-1.4 0-2.35-.95-.95-.95-.95-2.35 0-1.4.95-2.35Q22.6 8 24 8q1.4 0 2.35.95.95.95.95 2.35 0 1.4-.95 2.35-.95.95-2.35.95Zm12.7 0q-1.4 0-2.35-.95-.95-.95-.95-2.35 0-1.4.95-2.35Q35.3 8 36.7 8q1.4 0 2.35.95.95.95.95 2.35 0 1.4-.95 2.35-.95.95-2.35.95Z"
     id="path2"
     style="fill:#ffffff;fill-opacity:1" />
</svg>
